<?xml version="1.0" standalone="no"?>
<!DOCTYPE svg PUBLIC "-//W3C//DTD SVG 20010904//EN"
 "http://www.w3.org/TR/2001/REC-SVG-20010904/DTD/svg10.dtd">
<svg version="1.0" xmlns="http://www.w3.org/2000/svg"
 width="512.000000pt" height="512.000000pt" viewBox="0 0 512.000000 512.000000"
 preserveAspectRatio="xMidYMid meet">
<metadata>
Created by potrace 1.14, written by Peter Selinger 2001-2017
</metadata>
<g transform="translate(0.000000,512.000000) scale(0.100000,-0.100000)"
fill="#000000" stroke="none">
<path d="M0 2560 l0 -2560 2560 0 2560 0 0 2560 0 2560 -2560 0 -2560 0 0
-2560z m3778 1936 c72 -33 124 -86 158 -161 33 -72 44 -139 44 -276 l0 -119
-125 0 -125 0 0 120 c0 138 -15 192 -61 215 -37 20 -119 19 -147 -1 -52 -36
-52 -32 -52 -604 0 -572 0 -568 52 -604 26 -19 106 -21 142 -4 54 24 61 49 64
231 l4 167 124 0 124 0 0 -149 c0 -166 -9 -231 -44 -306 -34 -75 -86 -128
-158 -161 -59 -27 -71 -29 -188 -29 -121 0 -128 1 -192 33 -109 53 -167 139
-188 278 -7 48 -10 245 -8 590 3 458 6 525 21 571 25 74 75 143 131 181 76 50
125 62 251 59 96 -2 118 -6 173 -31z m-2250 -18 c4 -18 62 -243 128 -500 l119
-468 3 500 2 500 120 0 120 0 0 -840 0 -840 -137 0 -138 0 -154 598 c-84 328
-157 604 -162 612 -5 8 -9 -261 -9 -597 l0 -613 -115 0 -115 0 0 840 0 840
165 0 164 0 9 -32z m1000 -245 c44 -153 84 -290 87 -305 4 -16 10 -28 14 -28
3 0 40 116 81 258 40 141 80 278 88 305 l14 47 127 0 128 0 -158 -482 -159
-483 0 -357 0 -358 -130 0 -130 0 0 353 0 352 -160 480 c-88 264 -160 483
-160 487 0 5 62 8 138 8 l139 0 81 -277z m-396 -1981 c120 -59 180 -154 199
-317 12 -104 12 -906 0 -1010 -19 -163 -79 -258 -199 -317 -65 -32 -70 -33
-197 -33 -127 0 -132 1 -197 33 -121 59 -179 153 -199 319 -6 50 -9 275 -7
565 4 467 5 485 26 550 27 82 72 142 136 186 76 50 125 62 256 59 108 -2 120
-4 182 -35z m1396 23 c28 -9 70 -30 93 -48 99 -76 138 -162 147 -324 l5 -103
-125 0 -126 0 -4 88 c-6 126 -36 162 -136 162 -84 0 -122 -49 -122 -158 0
-112 39 -181 177 -313 261 -249 312 -326 331 -507 25 -229 -47 -398 -200 -467
-88 -40 -234 -47 -336 -16 -160 48 -242 186 -242 406 l0 85 125 0 125 0 0 -85
c0 -137 36 -185 136 -185 99 0 129 41 129 174 0 140 -20 173 -221 371 -95 94
-179 187 -203 224 -72 112 -101 247 -81 381 24 168 120 287 257 319 63 15 215
12 271 -4z m-2690 -37 c4 -18 62 -243 128 -500 l119 -468 3 500 2 500 120 0
120 0 0 -840 0 -840 -137 0 -138 0 -154 598 c-84 328 -157 604 -162 612 -5 8
-9 -261 -9 -597 l0 -613 -115 0 -115 0 0 840 0 840 165 0 164 0 9 -32z m1972
-808 l0 -840 -135 0 -135 0 0 840 0 840 135 0 135 0 0 -840z m1870 720 l0
-120 -230 0 -230 0 0 -220 0 -220 180 0 180 0 0 -120 0 -120 -180 0 -180 0 0
-260 0 -260 230 0 230 0 0 -120 0 -120 -360 0 -360 0 0 840 0 840 360 0 360 0
0 -120z"/>
<path d="M1858 2033 c-57 -36 -58 -46 -58 -603 0 -560 1 -568 59 -603 42 -25
121 -22 156 5 55 43 55 44 55 598 0 554 0 555 -55 598 -35 27 -117 30 -157 5z"/>
</g>
</svg>
